<?xml version="1.0" encoding="UTF-8"?>
<!DOCTYPE svg PUBLIC "-//W3C//DTD SVG 1.1//EN" "http://www.w3.org/Graphics/SVG/1.1/DTD/svg11.dtd">
<!-- Creator: CorelDRAW 2020 (64 Bit) -->
<svg xmlns="http://www.w3.org/2000/svg" xml:space="preserve" width="128.47mm" height="38.0433mm" version="1.1" style="shape-rendering:geometricPrecision; text-rendering:geometricPrecision; image-rendering:optimizeQuality; fill-rule:evenodd; clip-rule:evenodd"
viewBox="0 0 10262.77 3039.07"
 xmlns:xlink="http://www.w3.org/1999/xlink"
 xmlns:xodm="http://www.corel.com/coreldraw/odm/2003">
 <defs>
  <style type="text/css">
   <![CDATA[
    .fil2 {fill:#FEFEFE;fill-rule:nonzero}
    .fil0 {fill:#00AFEF;fill-rule:nonzero}
    .fil1 {fill:#3E4095;fill-rule:nonzero}
   ]]>
  </style>
 </defs>
 <g id="Camada_x0020_1">
  <metadata id="CorelCorpID_0Corel-Layer"/>
  <path class="fil0" d="M3039.08 1519.54c0,839.21 -680.32,1519.53 -1519.54,1519.53 -839.22,0 -1519.54,-680.32 -1519.54,-1519.53 0,-839.22 680.32,-1519.54 1519.54,-1519.54 839.22,0 1519.54,680.32 1519.54,1519.54z"/>
  <path class="fil1" d="M3360.09 1652.6l0 -1039.85 245.28 0 0 452.61 343.43 -452.61 295.46 0 -392.15 494.71 422.99 545.14 -299.62 0 -370.11 -479.04 0 479.04 -245.28 0zm313.11 728.43l0 50.97c-34.05,18.73 -73.43,28.1 -118.13,28.1 -36.2,0 -67.01,-7.3 -92.25,-21.91 -25.24,-14.6 -45.25,-34.69 -60.02,-60.33 -14.68,-25.64 -22.06,-53.35 -22.06,-83.2 0,-47.4 16.82,-87.25 50.57,-119.56 33.74,-32.31 75.34,-48.43 124.8,-48.43 34.13,0 72.08,8.89 113.76,26.67l0 50.02c-38.03,-21.59 -75.18,-32.39 -111.46,-32.39 -37.23,0 -68.11,11.75 -92.72,35.32 -24.53,23.5 -36.83,52.96 -36.83,88.36 0,35.72 12.06,65.1 36.28,88.12 24.13,22.94 55.1,34.45 92.73,34.45 39.38,0 77.87,-12.07 115.35,-36.2zm456.74 -254.35c50.17,0 91.93,15.87 125.27,47.71 33.42,31.75 50.1,71.69 50.1,119.56 0,47.95 -16.83,87.65 -50.49,119 -33.74,31.43 -76.21,47.16 -127.42,47.16 -48.99,0 -89.71,-15.72 -122.34,-47.16 -32.63,-31.35 -48.91,-70.73 -48.91,-118.05 0,-48.59 16.43,-88.76 49.22,-120.51 32.86,-31.83 74.38,-47.71 124.56,-47.71zm1.74 44.3c-37.15,0 -67.64,11.59 -91.53,34.85 -23.89,23.25 -35.88,52.95 -35.88,89.07 0,35.09 11.99,64.22 35.96,87.48 23.97,23.26 53.99,34.85 90.02,34.85 36.2,0 66.45,-11.83 90.66,-35.56 24.21,-23.74 36.28,-53.27 36.28,-88.6 0,-34.45 -12.07,-63.35 -36.28,-86.85 -24.21,-23.49 -53.98,-35.25 -89.23,-35.25zm470.95 -39.53l46.68 0 0 282.46 146.23 0 0 42.39 -192.91 0 0 -324.85zm577.25 -1.9l32.7 0 145.6 326.75 -47.64 0 -43.19 -96.21 -138.53 0 -40.57 96.21 -47.79 0 139.41 -326.75zm68.9 189.09l-52.79 -117.73 -49.14 117.73 101.93 0zm495.25 137.66l-110.03 0 0 -324.85 85.18 0c26.83,0 47.79,3.57 62.88,10.8 15,7.22 26.51,17.14 34.37,29.76 7.93,12.62 11.9,27.31 11.9,43.9 0,31.91 -16.51,54.78 -49.62,68.59 23.74,4.52 42.63,14.29 56.69,29.29 14.05,15 21.03,33.02 21.03,53.91 0,16.59 -4.28,31.43 -12.78,44.46 -8.57,13.01 -21.03,23.57 -37.63,31.83 -16.51,8.17 -37.15,12.3 -62,12.3zm-23.34 -283.41l-40.01 0 0 97.64 30.96 0c24.77,0 42.39,-4.76 52.87,-14.21 10.48,-9.45 15.72,-21.67 15.72,-36.67 0,-31.2 -19.84,-46.76 -59.54,-46.76zm3.49 139.08l-43.51 0 0 102.89 45.81 0c25.4,0 42.63,-1.99 51.77,-5.96 9.05,-3.89 16.35,-10.08 21.83,-18.41 5.47,-8.42 8.25,-17.39 8.25,-26.99 0,-9.84 -2.94,-18.89 -8.73,-27.15 -5.8,-8.17 -14.05,-14.29 -24.77,-18.33 -10.71,-4.05 -27.54,-6.04 -50.65,-6.04zm577.56 -185.28c50.17,0 91.93,15.87 125.27,47.71 33.42,31.75 50.1,71.69 50.1,119.56 0,47.95 -16.83,87.65 -50.49,119 -33.74,31.43 -76.21,47.16 -127.42,47.16 -48.99,0 -89.71,-15.72 -122.34,-47.16 -32.63,-31.35 -48.91,-70.73 -48.91,-118.05 0,-48.59 16.43,-88.76 49.22,-120.51 32.86,-31.83 74.38,-47.71 124.56,-47.71zm1.74 44.3c-37.15,0 -67.64,11.59 -91.53,34.85 -23.89,23.25 -35.88,52.95 -35.88,89.07 0,35.09 11.99,64.22 35.96,87.48 23.97,23.26 53.99,34.85 90.02,34.85 36.2,0 66.45,-11.83 90.66,-35.56 24.21,-23.74 36.28,-53.27 36.28,-88.6 0,-34.45 -12.07,-63.35 -36.28,-86.85 -24.21,-23.49 -53.98,-35.25 -89.23,-35.25zm472.38 285.32l0 -324.85 81.37 0c32.94,0 58.99,8.1 78.27,24.37 19.29,16.27 28.98,38.26 28.98,66.05 0,18.89 -4.77,35.25 -14.21,48.99 -9.45,13.81 -22.94,24.13 -40.65,30.96 10.4,6.83 20.56,16.12 30.48,27.94 9.92,11.75 23.89,32.31 41.92,61.61 11.27,18.49 20.32,32.39 27.15,41.68l17.22 23.26 -55.33 0 -14.21 -21.43c-0.48,-0.8 -1.35,-2.07 -2.78,-3.97l-9.05 -12.78 -14.37 -23.73 -15.56 -25.4c-9.6,-13.34 -18.41,-23.98 -26.43,-31.83 -7.94,-7.94 -15.16,-13.58 -21.59,-17.07 -6.43,-3.49 -17.22,-5.24 -32.47,-5.24l-12.07 0 0 141.47 -46.68 0zm60.65 -285.32l-13.97 0 0 102.41 17.62 0c23.58,0 39.69,-1.99 48.43,-6.04 8.81,-4.04 15.56,-10.08 20.48,-18.25 4.84,-8.1 7.3,-17.39 7.3,-27.71 0,-10.24 -2.69,-19.52 -8.09,-27.78 -5.48,-8.25 -13.1,-14.13 -22.94,-17.54 -9.76,-3.41 -26.12,-5.08 -48.83,-5.08zm569.39 -41.44l32.7 0 145.6 326.75 -47.64 0 -43.19 -96.21 -138.53 0 -40.57 96.21 -47.79 0 139.41 -326.75zm68.9 189.09l-52.79 -117.73 -49.14 117.73 101.93 0zm385.22 137.66l0 -324.85 109.71 0c44.3,0 79.31,6.67 105.1,19.92 25.72,13.26 46.29,32.79 61.45,58.51 15.24,25.8 22.86,53.91 22.86,84.31 0,21.75 -4.21,42.55 -12.54,62.4 -8.41,19.93 -20.4,37.39 -35.88,52.4 -15.87,15.56 -34.29,27.31 -55.26,35.17 -12.22,4.84 -23.49,8.09 -33.74,9.68 -10.24,1.67 -29.85,2.46 -58.75,2.46l-102.96 0zm104.95 -283.41l-58.28 0 0 241.97 59.62 0c23.34,0 41.44,-1.59 54.31,-4.77 12.94,-3.17 23.65,-7.22 32.31,-12.14 8.58,-4.84 16.52,-10.88 23.66,-18.02 22.94,-23.26 34.45,-52.72 34.45,-88.28 0,-34.93 -11.83,-63.43 -35.4,-85.42 -8.73,-8.25 -18.66,-15 -29.93,-20.32 -11.27,-5.24 -21.99,-8.73 -32.07,-10.47 -10.08,-1.67 -26.27,-2.54 -48.66,-2.54zm651.87 -46.21c50.17,0 91.93,15.87 125.27,47.71 33.42,31.75 50.1,71.69 50.1,119.56 0,47.95 -16.83,87.65 -50.49,119 -33.74,31.43 -76.21,47.16 -127.42,47.16 -48.99,0 -89.71,-15.72 -122.34,-47.16 -32.63,-31.35 -48.91,-70.73 -48.91,-118.05 0,-48.59 16.43,-88.76 49.22,-120.51 32.86,-31.83 74.38,-47.71 124.56,-47.71zm1.74 44.3c-37.15,0 -67.64,11.59 -91.53,34.85 -23.89,23.25 -35.88,52.95 -35.88,89.07 0,35.09 11.99,64.22 35.96,87.48 23.97,23.26 53.99,34.85 90.02,34.85 36.2,0 66.45,-11.83 90.66,-35.56 24.21,-23.74 36.28,-53.27 36.28,-88.6 0,-34.45 -12.07,-63.35 -36.28,-86.85 -24.21,-23.49 -53.98,-35.25 -89.23,-35.25zm472.38 285.32l0 -324.85 81.37 0c32.94,0 58.99,8.1 78.27,24.37 19.29,16.27 28.98,38.26 28.98,66.05 0,18.89 -4.77,35.25 -14.21,48.99 -9.45,13.81 -22.94,24.13 -40.65,30.96 10.4,6.83 20.56,16.12 30.48,27.94 9.92,11.75 23.89,32.31 41.92,61.61 11.27,18.49 20.32,32.39 27.15,41.68l17.22 23.26 -55.33 0 -14.21 -21.43c-0.48,-0.8 -1.35,-2.07 -2.78,-3.97l-9.05 -12.78 -14.37 -23.73 -15.56 -25.4c-9.6,-13.34 -18.41,-23.98 -26.43,-31.83 -7.94,-7.94 -15.16,-13.58 -21.59,-17.07 -6.43,-3.49 -17.22,-5.24 -32.47,-5.24l-12.07 0 0 141.47 -46.68 0zm60.65 -285.32l-13.97 0 0 102.41 17.62 0c23.58,0 39.69,-1.99 48.43,-6.04 8.81,-4.04 15.56,-10.08 20.48,-18.25 4.84,-8.1 7.3,-17.39 7.3,-27.71 0,-10.24 -2.69,-19.52 -8.09,-27.78 -5.48,-8.25 -13.1,-14.13 -22.94,-17.54 -9.76,-3.41 -26.12,-5.08 -48.83,-5.08zm465.71 -39.53l184.33 0 0 41.44 -137.66 0 0 99.07 132.9 0 0 41.44 -132.9 0 0 101.46 141.95 0 0 41.44 -188.62 0 0 -324.85zm558.83 188.46l-35.33 -21.43c-22.22,-13.57 -38.03,-26.91 -47.39,-40.01 -9.37,-13.09 -14.05,-28.26 -14.05,-45.33 0,-25.64 8.89,-46.44 26.67,-62.48 17.7,-15.95 40.81,-23.97 69.14,-23.97 27.15,0 52.08,7.62 74.71,22.94l0 52.87c-23.42,-22.62 -48.59,-33.89 -75.58,-33.89 -15.16,0 -27.62,3.49 -37.39,10.56 -9.76,7.06 -14.68,16.03 -14.68,26.98 0,9.77 3.57,18.9 10.8,27.39 7.22,8.49 18.81,17.46 34.77,26.83l35.48 21.03c39.61,23.74 59.47,53.99 59.47,90.58 0,26.12 -8.73,47.32 -26.2,63.67 -17.46,16.27 -40.09,24.45 -68.03,24.45 -32.07,0 -61.37,-9.92 -87.72,-29.69l0 -59.06c25.08,31.83 54.22,47.79 87.16,47.79 14.61,0 26.75,-4.05 36.44,-12.22 9.69,-8.18 14.53,-18.34 14.53,-30.64 0,-19.85 -14.29,-38.66 -42.79,-56.37zm-5500.87 -667.31l0 -1039.85 640.36 0 0 214.43 -399.49 0 0 188 342.22 0 0 212.96 -342.22 0 0 205.62 405.37 0 0 218.84 -646.23 0zm1150.22 0l0 -1073.63 23.75 0 647.46 606.83 0 -573.04 229.12 0 0 1079.5 -21.54 0 -649.66 -606.83 0 567.17 -229.12 0zm1643.7 -519.93c0,90.33 26.44,166.22 79.32,227.17 52.87,60.95 117.98,91.55 195.33,91.55 77.85,0 143.2,-30.36 195.83,-91.06 52.63,-60.95 78.82,-136.83 78.82,-227.65 0,-91.3 -26.19,-167.68 -78.82,-228.63 -52.63,-60.95 -117.98,-91.55 -195.83,-91.55 -77.35,0 -142.47,30.6 -195.33,91.55 -52.88,60.95 -79.32,137.33 -79.32,228.63zm-255.55 0c0,-77.1 13.21,-149.07 39.89,-216.14 26.44,-67.32 65.61,-127.29 117.25,-180.41 48.71,-50.67 105.5,-89.59 170.13,-116.51 64.38,-27.18 132.18,-40.64 202.92,-40.64 70.75,0 138.55,13.71 203.42,40.88 64.87,27.18 122.39,66.58 172.57,117.74 50.67,51.17 89.1,110.15 115.05,177.47 26.19,67.07 39.17,139.77 39.17,217.61 0,65.11 -9.06,126.31 -27.17,183.59 -18.37,57.29 -45.29,109.67 -81.27,157.16 -50.67,67.31 -112.84,119.7 -186.77,156.91 -73.93,37.45 -152.26,56.05 -235,56.05 -70.25,0 -137.57,-13.71 -201.95,-40.88 -64.38,-27.17 -121.41,-66.58 -171.1,-117.74 -51.65,-52.87 -90.81,-112.84 -117.25,-179.67 -26.68,-66.58 -39.89,-138.55 -39.89,-215.42zm1774.42 331.94l103.3 0c49.45,0 88.62,-12.25 117.01,-36.48 28.4,-24.48 42.59,-57.77 42.59,-100.37 0,-41.61 -13.96,-73.68 -41.61,-96.44 -27.66,-22.76 -67.07,-34.02 -117.99,-34.02l-103.3 0 0 267.31zm0 -440.62l82.49 0c48.71,0 86.66,-10.77 114.31,-32.07 27.42,-21.3 41.12,-51.41 41.12,-90.09 0,-38.92 -12.97,-67.31 -39.16,-85.43 -25.95,-18.36 -66.58,-27.42 -122.15,-27.42l-76.62 0 0 235zm-226.18 628.61l0 -1039.85 321.41 0c121.17,0 212.48,22.02 274.4,66.34 61.93,44.3 93.02,109.91 93.02,197.05 0,53.12 -14.2,98.16 -42.35,135.12 -28.39,37.2 -70.99,65.84 -128.02,86.4 63.4,14.44 112.84,43.82 148.83,88.62 35.98,44.8 53.85,99.38 53.85,163.76 0,99.87 -36.96,175.27 -110.89,226.18 -73.93,50.91 -183.34,76.37 -328.26,76.37l-281.99 0zm1217.78 0l0 -1039.85 248.21 0 0 1039.85 -248.21 0z"/>
  <path class="fil2" d="M1950.23 2533.98c-83.58,0 -151.57,-68 -151.57,-151.58l0 -524.63c0,-152 76.71,-286.39 193.46,-366.49 -36.29,-228.13 -234.39,-403.05 -472.58,-403.05 -238.18,0 -436.27,174.92 -472.59,403.03 116.76,80.12 193.47,214.51 193.47,366.51l0 524.63c0,83.58 -68,151.58 -151.57,151.58 -83.58,0 -151.58,-68 -151.58,-151.58l0 -815.64c0,-6.27 0.1,-12.49 0.3,-18.72 -43.07,-19.74 -90.92,-30.74 -141.32,-30.74 -187.73,0 -340.45,152.73 -340.45,340.47l0 399.32c0,28.64 -23.22,51.87 -51.87,51.87 -28.64,0 -51.86,-23.23 -51.86,-51.87l0 -399.32c0,-178.04 105.3,-331.91 256.88,-402.7 -66.48,-52.75 -109.2,-134.21 -109.2,-225.47 0,-158.63 129.06,-287.7 287.7,-287.7 146.46,0 267.7,110.01 285.46,251.73 65.3,-78.03 150.61,-138.77 247.97,-174.23 -97.8,-64.68 -162.45,-175.63 -162.45,-301.4 0,-199.11 162,-361.1 361.13,-361.1 199.11,0 361.12,161.99 361.12,361.1 0,125.78 -64.64,236.72 -162.45,301.4 93.66,34.1 176.15,91.6 240.42,165.38 21.59,-137.42 140.8,-242.89 284.2,-242.89 158.64,0 287.7,129.07 287.7,287.7 0,89.77 -41.34,170.07 -105.98,222.87 154.58,69.58 262.47,225.07 262.47,405.29l0 399.32c0,28.64 -23.22,51.87 -51.87,51.87 -28.64,0 -51.86,-23.23 -51.86,-51.87l0 -399.32c0,-187.74 -152.72,-340.47 -340.45,-340.47 -50.39,0 -98.26,11 -141.33,30.74 0.2,6.21 0.3,12.46 0.3,18.72l0 815.64c0,83.58 -67.98,151.58 -151.56,151.58zm292.6 -1488.34l0 0c-101.44,0 -183.97,82.53 -183.97,183.97 0,101.45 82.53,183.97 183.97,183.97 101.45,0 183.97,-82.53 183.97,-183.97 0,-101.44 -82.53,-183.97 -183.97,-183.97zm-723.29 -585l0 0c-141.93,0 -257.39,115.46 -257.39,257.37 0,141.94 115.46,257.4 257.39,257.4 141.93,0 257.39,-115.47 257.39,-257.4 0,-141.91 -115.46,-257.37 -257.39,-257.37zm-732.1 585l0 0c-101.44,0 -183.97,82.53 -183.97,183.97 0,101.45 82.53,183.97 183.97,183.97 101.45,0 183.97,-82.53 183.97,-183.97 0,-101.44 -82.53,-183.97 -183.97,-183.97zm1210.63 575.71l0 0c-59.22,61.29 -95.69,144.66 -95.69,236.42l0 524.63c0,26.39 21.46,47.86 47.85,47.86 26.38,0 47.84,-21.47 47.84,-47.86l0 -761.04zm-957.07 -0.02l0 0 0 761.06c0,26.39 21.46,47.86 47.85,47.86 26.39,0 47.85,-21.47 47.85,-47.86l0 -524.63c0,-91.76 -36.48,-175.15 -95.7,-236.43z"/>
 </g>
</svg>
